PathFileType	4	(X/Y/Z)	C:/Users/beibeiliu/ov580/test_trc/User2\sequence.12_training_dense_right.trc
DataRate	CameraRate	NumFrames	NumMarkers	Units	OrigDataRate	OrigDataStartFrame	OrigNumFrames
120	120	18	19	mm	120	1	57
Frame#	Time	ThumbCMC			ThumbMCP			ThumbIP			ThumbTip			IndexMCP			IndexPIP			IndexTip			MiddleMCP			MiddlePIP			MiddleTip			RingMCP			RingPIP			RingTip			PinkyMCP			PinkyPIP			PinkyTip			BackHand1			BackHand2			BackHand3	
		X0	Y0	Z0	X1	Y1	Z1	X2	Y2	Z2	X3	Y3	Z3	X4	Y4	Z4	X5	Y5	Z5	X6	Y6	Z6	X7	Y7	Z7	X8	Y8	Z8	X9	Y9	Z9	X10	Y10	Z10	X11	Y11	Z11	X12	Y12	Z12	X13	Y13	Z13	X14	Y14	Z14	X15	Y15	Z15	X16	Y16	Z16	X17	Y17	Z17	X18	Y18	Z18	
0	0	138.831	63.4957	-20.1463	133.236	104.191	-36.433	103.267	123.541	-51.3919	74.6852	113.256	-52.429	113.472	52.6065	-97.1449	110.207	59.9602	-127.777	109.433	66.0588	-151.345	84.3053	45.4804	-98.8276	78.8161	55.308	-129.19	65.4094	66.3437	-157.505	58.2693	62.835	-84.0233	50.388	94.1057	-90.4984	60.7522	118.803	-64.856	44.5651	50.9621	-62.0342	27.0358	58.6636	-80.3194	12.2889	62.4217	-96.4525	81.2656	26.7012	-37.9076	94.1601	11.3717	-9.10419	120.708	25.8362	-33.0135	
1	0.00833333	150.711	58.8265	-30.5145	143.117	92.2272	-43.7153	112.537	109.571	-64.3546	84.6592	103.21	-66.9412	130.655	39.6112	-102.846	131.697	42.8589	-133.945	125.156	47.8789	-161.319	104.78	32.3615	-105.234	96.2433	39.1853	-140.329	84.3497	44.8394	-167.971	75.9738	48.3242	-96.2908	61.4591	73.9842	-102.22	74.9465	103.503	-80.4205	60.9059	37.4751	-70.9584	42.6196	42.2904	-92.2218	31.24	46.1228	-113.239	96.5003	16.9149	-43.6183	107.459	4.71255	-13.3917	135.314	17.307	-40.1057	
2	0.0166667	162.62	51.0641	-31.4552	147.229	81.6406	-53.5913	119.01	96.262	-75.8416	93.2706	82.4659	-78.3222	147.023	24.98	-108.535	150.883	27.5358	-135.559	144.552	29.4419	-163.947	121.116	14.3457	-116.313	114.771	17.5676	-146.533	102.539	19.8326	-176.584	89.3475	26.0038	-103.23	78.5887	50.8975	-115.196	82.7777	81.5064	-94.0374	75.9082	15.822	-81.637	59.3049	19.6652	-100.002	49.1152	19.5725	-120.33	111.091	1.82498	-50.3868	119.108	-8.26117	-20.1071	148.913	5.96746	-41.9288	
3	0.025	167.052	48.1298	-38.3153	149.025	75.7432	-59.1956	118.844	80.1614	-86.3376	94.9714	62.663	-91.4608	166.577	16.3087	-109.721	169.888	17.5505	-142.577	165.148	16.4477	-168.661	139.274	-4.2723	-117.473	134.2	-4.02897	-151.613	125.143	-3.88665	-179.806	108.836	4.17825	-112.691	90.6095	28.9658	-124.708	90.826	57.6958	-104.587	94.8474	-7.30159	-88.316	80.6156	-6.89422	-107.773	67.7463	-11.0826	-133.218	132.766	-12.7394	-55.3406	137.293	-16.8096	-20.5179	166.65	2.77207	-47.4836	
4	0.0333333	167.502	52.1009	-41.4179	143.606	71.4107	-63.585	116.785	70.322	-92.0947	98.493	45.5475	-98.9958	181.254	17.0851	-113.121	187.565	20.3361	-138.478	185.107	17.602	-167.081	164.591	-4.94165	-115.041	160.769	-8.8686	-152.471	156.599	-12.1008	-179.741	130.494	-8.12514	-111.189	108.332	12.2674	-130.576	96.6646	40.1096	-110.84	115.496	-22.4681	-89.8628	104.054	-27.704	-117.868	94.5132	-32.1845	-140.217	150.756	-16.4809	-52.9787	153.36	-21.778	-20.8775	175.984	3.83656	-42.2106	
5	0.0416667	161.464	58.9895	-40.9711	135.925	69.3467	-63.9953	113.459	63.2109	-90.2644	102.925	36.9917	-101.795	191.709	33.6769	-108.283	196.97	32.1497	-137.386	203.566	37.6945	-165.253	181.612	2.18883	-112.569	183.102	-2.63595	-146.017	183.415	-4.15002	-175.341	150.713	-7.92377	-114.743	125.465	-0.337447	-132.47	107.454	25.6223	-117.1	139.289	-28.848	-94.1098	133.94	-32.4658	-116.974	127.22	-42.9949	-144.089	165.204	-14.4554	-53.7929	169.3	-12.2258	-21.9689	184.946	16.2612	-42.9864	
6	0.05	150.824	61.9993	-36.0814	124.249	69.6348	-63.0069	107.438	55.9316	-96.0593	107.648	26.1627	-107.673	193.451	54.0769	-102.248	201.715	63.005	-129.69	206.918	61.7459	-156.692	196.625	25.4437	-108.871	201.348	23.3032	-141.218	205.11	20.7301	-172.211	170.537	-1.6043	-113.059	145.318	0.789542	-132.632	116.641	15.0598	-118.111	166.321	-19.082	-91.8209	163.313	-29.6139	-119.986	163.049	-34.838	-146.828	183.161	1.3464	-48.3275	182.169	2.07652	-16.9159	187.738	35.2935	-37.4149	
7	0.0583333	137.075	65.1138	-26.9949	113.242	63.7102	-59.8945	105.5	47.6257	-93.3428	119.325	21.5039	-108.266	184.749	80.9714	-92.7667	191.723	90.6015	-121.536	198.076	100.018	-146.903	199.682	52.4132	-103.628	206.827	57.3566	-134.63	216.088	57.7638	-167.179	185.257	20.0509	-110.263	162.205	14.3155	-131.57	130.325	17.7876	-119.318	188.027	0.0737808	-88.2112	191.099	-4.235	-114.894	197.656	-9.5721	-141.826	193.988	22.8269	-48.0032	190.107	18.3309	-10.9441	182.307	55.4907	-27.6251	
8	0.0666667	127.817	60.9125	-27.2317	104.788	54.6634	-57.2019	107.207	40.6176	-89.9455	127.914	23.3222	-107.283	167.116	99.7033	-84.5038	169.784	116.017	-107.145	174.606	126.158	-129.237	191.946	81.8622	-91.7809	199.303	94.3405	-124.514	205.198	102.153	-147.783	190.315	51.1086	-99.7222	174.808	40.6733	-126.764	141.571	22.6357	-117.073	202.551	27.8635	-84.3684	207.991	30.1134	-111.447	218.169	27.8404	-132.466	197.048	42.8769	-40.4207	193.073	35.3987	-8.8151	171.425	66.4435	-19.966	
9	0.075	115.173	54.0949	-21.3509	99.9263	43.3277	-58.4626	107.809	33.8761	-91.9568	136.657	26.351	-107.449	148.689	106.835	-77.7483	143.447	123.379	-96.4649	147.29	140.288	-122.221	173.397	102.832	-84.5719	179.966	117.476	-113.579	184.343	130.739	-135.766	185.122	69.5373	-94.3788	173.571	58.4287	-122.675	148.346	31.6527	-117.241	205.021	49.3731	-78.4594	211.779	56.6659	-102.969	221.038	65.6548	-123.086	184.317	58.756	-33.5037	186.8	48.4455	-5.79208	159.841	72.3569	-14.1696	
10	0.0833333	109.736	49.3131	-23.3161	93.0336	38.0492	-60.5381	103.121	28.3344	-94.9654	135.238	25.8181	-104.875	130.274	104.511	-72.3167	124.772	125.156	-97.1633	129.107	138.214	-117.93	159.479	104.08	-82.7515	164.326	119.728	-107.647	166.722	135.919	-133.211	175.698	75.1221	-96.2575	166.085	62.0515	-122.234	144.623	32.8223	-117.121	197.294	56.8839	-76.9002	203.442	66.4829	-99.8965	215.105	79.133	-120.766	174.754	62.6764	-30.4319	177.221	52.9502	-0.098486	146.227	70.8577	-13.4557	
11	0.0916667	97.4454	43.3113	-17.5271	86.1039	32.4786	-53.4731	96.3023	24.045	-92.9318	126.538	22.0364	-103.415	113.22	101.499	-74.54	109.843	118.364	-98.2844	107.256	132.603	-122.532	141.615	99.065	-81.3233	145.744	116.252	-111.021	145.244	131.851	-135.749	161.587	72.7698	-95.6249	153.572	57.3579	-121.699	131.086	27.4235	-114.173	181.51	59.7884	-79.466	192.75	65.9105	-102.482	202.648	74.4365	-121.318	165.53	63.6986	-35.3611	166.194	53.4532	-1.84573	131.155	72.3364	-16.2423	
12	0.1	83.1511	39.4851	-14.6462	72.1726	24.1079	-48.6697	79.2427	11.432	-81.8236	106.981	8.33464	-96.6973	96.8072	91.9793	-78.7877	92.4303	102.675	-103.28	85.4222	112.213	-124.659	125.664	89.4057	-89.5514	129.437	98.76	-120.636	128.709	109.252	-145.899	144.249	59.3044	-98.1328	135.919	37.8339	-121.978	113.072	12.7421	-111.115	169.19	47.1005	-79.2908	175.011	51.3462	-103.426	183.06	57.9218	-125.868	151.259	58.7984	-34.3558	153.963	49.9043	-3.0392	120.036	68.3274	-12.7951	
13	0.108333	73.0419	31.8213	-12.577	54.7377	10.8536	-40.3979	61.3077	-5.5963	-71.2433	85.1903	-14.7107	-85.2801	82.4718	66.7431	-83.1631	74.128	74.7141	-109.468	65.8481	83.7261	-136.185	111.74	60.4518	-93.0677	108.207	65.0894	-124.518	106.167	71.0513	-157.586	127.297	32.7434	-99.9654	111.347	15.2184	-117.641	94.7222	-11.4223	-104.501	150.464	20.8557	-76.9458	155.609	19.9696	-106.635	158.348	22.3814	-126.874	135.503	42.4835	-34.0191	141.082	41.4687	-5.90631	106.368	59.2494	-15.4778	
14	0.116667	60.1144	35.1367	-6.749	33.5447	13.1842	-27.1392	35.4287	-10.0453	-55.9621	62.6319	-24.0646	-71.5805	67.0809	57.6386	-86.0413	58.9311	59.4074	-112.39	49.9191	64.6758	-134.723	90.4254	42.8545	-95.5093	88.1856	39.5703	-125.329	81.119	39.9785	-157.921	105.66	10.1206	-95.6853	83.4382	-11.3927	-109.849	62.3857	-26.656	-84.8942	125.559	-2.17133	-75.645	129.467	-11.092	-100.571	128.306	-15.074	-128.547	124.738	26.7865	-37.1951	130.333	33.5337	-5.9294	98.3412	51.8536	-21.393	
15	0.125	57.5373	51.5006	-3.71513	25.6621	33.9497	-16.1198	11.6465	8.13296	-38.3588	28.5213	-15.2716	-51.7555	61.045	56.3824	-84.6081	48.4375	58.376	-110.718	39.1797	60.8483	-133.864	76.0776	31.313	-96.6141	63.8619	27.8831	-125.614	55.2846	23.2613	-151.615	77.2169	0.565805	-89.8264	55.1986	-20.2021	-97.1072	30.8283	-24.5166	-67.0553	98.102	-18.2045	-70.7284	91.3928	-31.4051	-92.4783	84.6108	-39.36	-116.244	114.943	16.315	-37.0465	126.897	22.7477	-11.1965	99.1182	50.7685	-21.0994	
16	0.133333	68.0697	63.072	-3.15692	27.488	59.697	-10.559	5.30991	34.8364	-28.3168	10.0776	7.02974	-37.9035	61.0122	59.1955	-85.8525	47.4968	63.349	-108.821	35.8207	60.6148	-135.332	67.8175	30.6343	-91.4738	50.2982	25.8607	-118.737	35.4986	15.7586	-143.782	58.7809	1.29007	-78.5275	24.4878	-8.26494	-80.5424	6.49305	-0.796341	-49.6193	72.4836	-20.9307	-60.5762	53.3763	-32.2776	-82.5972	41.19	-41.0564	-101.978	104.597	11.8816	-36.0864	122.909	15.5587	-9.66478	103.564	48.1914	-23.7603	
17	0.141667	81.1906	77.2672	-7.48957	42.358	82.0053	-11.1804	9.714	71.8571	-19.4544	2.98626	42.5706	-27.7717	65.1211	62.3005	-87.3685	51.7951	67.8213	-110.246	37.6915	70.3077	-132.047	58.217	32.4715	-91.333	37.2865	31.8249	-116.983	18.3877	31.9936	-139.002	39.7002	13.3343	-73.7603	5.25666	14.7357	-67.0581	-3.4868	32.8572	-41.1581	47.1628	-9.543	-56.506	24.3688	-17.2214	-70.8353	9.58428	-25.7899	-84.8082	94.0262	8.87977	-35.0842	116.356	10.0073	-8.67979	107.64	48.4164	-27.5446	
